<svg xmlns="http://www.w3.org/2000/svg" width="125" height="37" viewBox="0 0 125 37" fill="none">
  <path d="M20.666 10.2743V20.2862H14.6339H8.60184V14.2818V8.29136L4.6498 4.33932L0.697754 0.387272V10.3714V20.3555L8.67118 28.3289L16.6446 36.3023V32.3087V28.3289H22.6767H28.7087V18.3032V8.29136L24.6874 4.26998L20.666 0.248604V10.2743Z" fill="#F5C502"/>
  <path d="M41.605 7.94469V15.5714H43.477H45.349V7.94469V0.317941H43.477H41.605V7.94469Z" fill="#011432"/>
  <path d="M37.9717 5.01879C37.0149 5.21293 36.3493 5.8092 35.9887 6.83535C35.4895 8.2359 35.4479 12.0354 35.9194 13.644C36.1274 14.365 36.6127 15.0306 37.1674 15.3496C37.8191 15.7378 39.5109 15.7517 40.2597 15.3773L40.7728 15.1277V13.8242V12.5207H40.329C39.497 12.5207 39.4554 12.4237 39.4138 10.5101C39.3584 8.4439 39.4832 8.08336 40.2874 8.08336H40.7728V6.86308C40.7728 5.40706 40.6618 5.25453 39.5248 5.03266C38.7205 4.88013 38.7205 4.88013 37.9717 5.01879Z" fill="#011432"/>
  <path d="M50.0497 5.04652C47.9974 5.35159 47.1793 6.4332 47.3318 8.72123C47.4566 10.7597 48.0252 11.2727 50.6321 11.6471C51.5057 11.7719 52.2961 11.9383 52.3932 12.0077C52.5041 12.1047 52.5596 12.6594 52.5596 13.9074V15.6824L53.1559 15.613C54.6258 15.4605 55.5826 14.7533 55.9015 13.6024C55.9847 13.2557 56.0263 12.4791 55.9986 11.7442C55.8876 9.62257 55.4855 9.26204 52.8508 8.9015C51.9079 8.76283 51.0759 8.59643 50.9788 8.49936C50.8956 8.41616 50.7985 7.65349 50.7569 6.65507L50.6876 4.96332L50.0497 5.04652Z" fill="#011432"/>
  <path d="M51.7275 6.2668V7.63962L53.3638 7.72282C54.2513 7.77829 55.0972 7.86149 55.2358 7.88922C55.4438 7.95856 55.4716 7.83375 55.4716 6.64121C55.4716 5.518 55.4438 5.32386 55.2358 5.25453C54.8198 5.12972 52.8508 4.89399 52.2683 4.89399H51.7275V6.2668Z" fill="#011432"/>
  <path d="M59.7981 5.03266C57.9954 5.22679 58.1063 5.11586 58.1063 6.59961V7.88922L60.4498 7.83375C63.653 7.75055 63.3757 7.36228 63.3757 11.9661V15.5714H65.2616H67.1336L67.092 11.3698C67.0504 7.22361 67.0504 7.18201 66.7037 6.48867C66.4541 5.98947 66.1907 5.71213 65.7885 5.47639C64.8179 4.94946 62.3357 4.76919 59.7981 5.03266Z" fill="#011432"/>
  <path d="M75.3151 5.03266C74.9823 5.10199 74.5663 5.25453 74.386 5.37933C74.081 5.57347 74.0532 5.6844 74.0532 6.83535C74.0532 8.06949 74.0532 8.08336 74.386 8.08336C75.1348 8.08336 75.1626 8.22203 75.1626 12.0493V15.5714H77.0485H78.9205L78.8789 11.2311C78.8373 6.93241 78.8373 6.90468 78.4906 6.22521C78.2965 5.83694 77.9914 5.42093 77.7973 5.29613C77.3674 4.99106 76.1332 4.86626 75.3151 5.03266Z" fill="#011432"/>
  <path d="M80.9728 5.03265C79.6416 5.25452 79.3782 5.57346 79.6 6.65507C79.6832 7.09881 79.7942 7.59802 79.8219 7.76442C79.8635 7.98629 79.9744 8.08335 80.2102 8.08335C80.3904 8.08335 80.6123 8.16656 80.6955 8.26362C80.7926 8.38842 80.8619 9.66417 80.8758 11.9799L80.9174 15.5021H82.7894H84.6614V11.4114C84.6475 7.15428 84.5782 6.5164 84.0374 5.83693C83.5105 5.14359 82.2209 4.82465 80.9728 5.03265Z" fill="#011432"/>
  <path d="M89.7921 4.96332C89.7228 4.97719 89.2929 5.07425 88.8492 5.17132C87.9201 5.35159 87.1574 5.934 86.8523 6.68281C86.7275 6.97401 86.6582 7.61188 86.6582 8.37456C86.6721 10.7597 87.2545 11.3005 90.1804 11.6887C91.9692 11.9245 91.8028 11.7165 91.8028 13.8242V15.6824L92.4684 15.613C92.8289 15.5714 93.4668 15.3773 93.8828 15.1832C94.9644 14.6562 95.3111 13.9352 95.325 12.1879C95.3388 9.81671 94.8812 9.2759 92.6071 8.97083C91.8167 8.8599 90.9569 8.7351 90.6934 8.66576L90.2081 8.56869L90.1665 6.72441C90.1526 5.726 90.0833 4.89399 90.0278 4.90785C89.9724 4.90785 89.8753 4.93559 89.7921 4.96332Z" fill="#011432"/>
  <path d="M90.9707 6.25293V7.62574L92.815 7.75055C93.8134 7.83375 94.687 7.87535 94.7563 7.83375C94.8118 7.80601 94.8534 7.23747 94.8534 6.558C94.8534 5.50412 94.8118 5.32385 94.6177 5.25452C94.1739 5.12972 92.2187 4.89398 91.5808 4.89398H90.9707V6.25293Z" fill="#011432"/>
  <path d="M69.4771 10.3021V15.5714H71.3491H73.2211V10.3021V5.03266H71.3491H69.4771V10.3021Z" fill="#011432"/>
  <path d="M104.033 9.28977C104.075 13.3112 104.089 13.6024 104.38 14.2125C104.574 14.6424 104.879 14.989 105.268 15.2525C105.781 15.5853 105.975 15.6408 106.904 15.6408C107.667 15.6269 108.11 15.5576 108.512 15.3634L109.067 15.0861L109.109 13.7965L109.15 12.5207H108.679C107.847 12.5207 107.819 12.4375 107.778 8.54097L107.722 5.03266H105.85H103.978L104.033 9.28977Z" fill="#011432"/>
  <path d="M109.968 10.3021V15.5714H111.84H113.712V10.3021V5.03266H111.84H109.968V10.3021Z" fill="#011432"/>
  <path d="M116.07 6.48866V7.94468H118.081C119.19 7.94468 120.091 7.98628 120.091 8.04175C120.077 8.11108 119.121 9.20656 117.928 10.51L115.792 12.8674L115.82 14.1847L115.862 15.5021L116.902 15.5437L117.942 15.5853L121.45 11.6749L124.945 7.77828V6.40546V5.03265H120.507H116.07V6.48866Z" fill="#011432"/>
  <path d="M58.9939 9.4839C58.0232 9.76124 57.5518 10.718 57.5518 12.4098C57.5518 13.949 57.9816 14.9336 58.8414 15.3912C59.4376 15.7101 61.3235 15.7101 61.9614 15.3773C62.4051 15.1554 62.4051 15.1416 62.4051 14.1293V13.1031L61.9614 13.0199C61.3235 12.8951 61.1571 12.6871 61.1571 12.0493C61.1571 11.3421 61.3374 11.1341 61.9475 11.1341H62.4051V10.2327V9.33137L60.9214 9.34523C60.0894 9.34523 59.2296 9.41457 58.9939 9.4839Z" fill="#011432"/>
  <path d="M97.4883 13.9074V15.5714H99.499H101.51V13.9074V12.2434H99.499H97.4883V13.9074Z" fill="#011432"/>
  <path d="M47.6229 12.7842C47.5952 12.8119 47.5674 13.3944 47.5674 14.06C47.5674 15.4744 47.4149 15.3634 49.4949 15.5714C51.8246 15.7933 51.5888 15.932 51.5888 14.3512V12.9783L49.6336 12.8535C48.5658 12.7842 47.6506 12.7565 47.6229 12.7842Z" fill="#011432"/>
  <path d="M86.9494 13.949C86.9494 15.5021 86.783 15.3634 88.8769 15.5714C91.2065 15.7933 90.9708 15.932 90.9708 14.3373V12.9783L89.1542 12.8813C88.1558 12.8258 87.2545 12.7426 87.1436 12.701C86.991 12.6455 86.9494 12.8813 86.9494 13.949Z" fill="#011432"/>
  <path d="M120.48 14.0461C119.8 14.7949 119.259 15.4466 119.259 15.4882C119.259 15.5298 120.535 15.5714 122.102 15.5714H124.945V14.1154V12.6594L123.322 12.6733L121.686 12.6871L120.48 14.0461Z" fill="#011432"/>
  <path d="M78.6571 18.5112C78.5601 18.6083 78.4907 18.7608 78.4907 18.844C78.4907 19.052 78.9761 19.2323 79.1841 19.1075C79.4059 18.9688 79.3505 18.5251 79.1009 18.428C78.8235 18.3171 78.8513 18.3171 78.6571 18.5112Z" fill="#4B5970"/>
  <path d="M98.4867 18.5112C98.2371 18.7608 98.2926 19.0104 98.6115 19.1075C98.9998 19.2323 99.2633 18.9688 99.0691 18.6637C98.875 18.3587 98.6947 18.3032 98.4867 18.5112Z" fill="#4B5970"/>
  <path d="M103.202 18.5112C102.952 18.7608 103.007 19.0104 103.326 19.1075C103.715 19.2323 103.978 18.9688 103.784 18.6637C103.59 18.3587 103.41 18.3032 103.202 18.5112Z" fill="#4B5970"/>
  <path d="M110.662 18.4419C110.038 18.6499 110.038 18.6499 110.357 18.7747C110.648 18.8856 110.662 18.955 110.662 20.7715C110.662 22.5465 110.648 22.6435 110.384 22.6435C110.232 22.6435 110.107 22.699 110.107 22.7822C110.107 22.8515 110.454 22.9209 110.87 22.9209C111.286 22.9209 111.632 22.8515 111.632 22.7822C111.632 22.699 111.535 22.6435 111.424 22.6435C111.244 22.6435 111.216 22.3107 111.216 20.4942C111.216 18.2755 111.202 18.2478 110.662 18.4419Z" fill="#4B5970"/>
  <path d="M118.441 18.4835C118.177 18.636 118.316 19.1075 118.635 19.1075C118.815 19.1075 118.926 18.9965 118.954 18.8163C118.995 18.4973 118.718 18.3032 118.441 18.4835Z" fill="#4B5970"/>
  <path d="M124.001 18.5112C123.752 18.7608 123.807 19.0104 124.126 19.1075C124.514 19.2323 124.778 18.9688 124.584 18.6637C124.39 18.3587 124.209 18.3032 124.001 18.5112Z" fill="#4B5970"/>
  <path d="M62.4053 18.8995C62.4053 18.9688 62.5301 19.0381 62.6826 19.0381C62.9461 19.0381 62.9599 19.1352 62.9599 20.8408C62.9599 22.5464 62.9461 22.6435 62.6826 22.6435C62.5301 22.6435 62.4053 22.699 62.4053 22.7822C62.4053 22.8515 62.7242 22.9208 63.0986 22.9208C63.4869 22.9208 63.792 22.8515 63.792 22.7822C63.792 22.699 63.6949 22.6435 63.584 22.6435C63.4176 22.6435 63.376 22.4632 63.376 21.8392C63.376 21.4094 63.3344 20.7021 63.2928 20.2861C63.2373 19.8701 63.2512 19.5651 63.3205 19.6344C63.376 19.6899 63.7088 20.4387 64.0554 21.2846C64.4021 22.1304 64.7626 22.8515 64.8458 22.8792C64.929 22.907 65.2896 22.1998 65.6501 21.2568C66.0107 20.3416 66.3296 19.5928 66.3712 19.5928C66.3989 19.5928 66.4267 20.2584 66.4267 21.0627C66.4267 22.4078 66.3989 22.5326 66.1493 22.6019C65.5946 22.7544 65.8997 22.9208 66.704 22.9208C67.1616 22.9208 67.536 22.8654 67.536 22.7822C67.536 22.699 67.4112 22.6435 67.2587 22.6435C66.9952 22.6435 66.9813 22.5464 66.9813 20.8408C66.9813 19.1352 66.9952 19.0381 67.2587 19.0381C67.4112 19.0381 67.536 18.9688 67.536 18.8995C67.536 18.8163 67.2587 18.7608 66.9259 18.7608H66.3157L65.664 20.4248C65.3034 21.34 64.9984 22.0888 64.9706 22.0888C64.9429 22.0888 64.624 21.34 64.2634 20.4248L63.5978 18.7608H63.0015C62.6687 18.7608 62.4053 18.8163 62.4053 18.8995Z" fill="#4B5970"/>
  <path d="M92.9814 19.5928C92.9121 19.884 92.8012 20.0088 92.6209 20.0088C92.4822 20.0088 92.3574 20.0643 92.3574 20.1475C92.3574 20.2168 92.4822 20.2862 92.6348 20.2862C92.8982 20.2862 92.9121 20.3832 92.9121 21.5342C92.9121 22.7406 92.926 22.7822 93.2588 22.8654C93.6748 22.9625 94.3404 22.8238 94.2294 22.6574C94.1878 22.5881 94.0353 22.5603 93.8689 22.6019C93.4529 22.7129 93.3281 22.4355 93.3281 21.2846V20.2862H93.7441C94.271 20.2862 94.2988 20.0366 93.7857 19.9811C93.4529 19.9395 93.3974 19.884 93.439 19.5512C93.4945 19.0243 93.1062 19.052 92.9814 19.5928Z" fill="#4B5970"/>
  <path d="M96.4482 19.5928C96.3789 19.884 96.268 20.0088 96.0877 20.0088C95.949 20.0088 95.8242 20.0643 95.8242 20.1475C95.8242 20.2168 95.949 20.2862 96.1016 20.2862C96.3512 20.2862 96.3789 20.3832 96.3789 21.4371C96.3789 22.1443 96.4482 22.6574 96.5453 22.7544C96.7394 22.9486 97.3357 22.9625 97.6269 22.7822C97.8488 22.6435 97.7378 22.6019 97.2664 22.6296C96.9058 22.6574 96.7949 22.3384 96.7949 21.1459V20.2862H97.2802C97.5437 20.2862 97.7656 20.2168 97.7656 20.1475C97.7656 20.0643 97.5853 20.0088 97.3496 20.0088C96.9752 20.0088 96.9336 19.9672 96.9336 19.5928C96.9336 19.3293 96.8642 19.1768 96.7394 19.1768C96.6285 19.1768 96.5037 19.3571 96.4482 19.5928Z" fill="#4B5970"/>
  <path d="M68.7422 20.1475C67.9934 20.7438 67.9102 22.1027 68.6036 22.6435C69.075 23.0041 70.0319 23.0179 70.3508 22.6713C70.6975 22.283 70.6281 22.1998 70.1844 22.4355C69.8793 22.5881 69.6852 22.6019 69.3662 22.491C69.0057 22.3662 68.6452 21.8947 68.6452 21.5342C68.6452 21.451 69.1166 21.3955 69.699 21.3955H70.7668L70.6697 20.9379C70.4895 20.0088 69.4633 19.579 68.7422 20.1475ZM69.9487 20.3694C70.0735 20.4803 70.1705 20.7022 70.1705 20.8547C70.1705 21.0766 70.0735 21.1182 69.4078 21.1182C68.9918 21.1182 68.6452 21.0627 68.6452 20.9934C68.6452 20.7438 69.2276 20.1475 69.4772 20.1475C69.6158 20.1475 69.8377 20.2446 69.9487 20.3694Z" fill="#4B5970"/>
  <path d="M71.6681 20.0643C71.2382 20.2168 71.1827 20.3555 71.4878 20.4803C71.6403 20.5358 71.6958 20.7992 71.6958 21.6035C71.6958 22.4355 71.6542 22.6435 71.4878 22.6435C71.3769 22.6435 71.2798 22.699 71.2798 22.7822C71.2798 22.8515 71.5987 22.9209 71.9731 22.9209C72.3614 22.9209 72.6665 22.8515 72.6665 22.7822C72.6665 22.699 72.5694 22.6435 72.4585 22.6435C72.2921 22.6435 72.2505 22.4494 72.2505 21.6867C72.2505 20.8408 72.2921 20.6883 72.5555 20.508C73.3043 19.9811 73.6371 20.3694 73.6371 21.7283C73.6371 22.4494 73.5955 22.6435 73.4291 22.6435C73.3182 22.6435 73.2211 22.699 73.2211 22.7822C73.2211 22.8515 73.5401 22.9209 73.9145 22.9209C74.3027 22.9209 74.6078 22.8515 74.6078 22.7822C74.6078 22.699 74.5108 22.6435 74.3998 22.6435C74.2334 22.6435 74.1918 22.4633 74.1918 21.8393C74.1918 20.1475 73.6926 19.5235 72.7635 20.0643C72.4169 20.2584 72.3337 20.2584 72.195 20.1059C72.0841 19.9534 71.9593 19.9534 71.6681 20.0643Z" fill="#4B5970"/>
  <path d="M75.8559 20.0782C74.9823 20.5358 74.8437 22.1721 75.6202 22.7129C76.1055 23.0457 76.993 22.9763 77.3813 22.5742C77.7557 22.1721 77.6725 22.1305 77.1733 22.4494C76.6741 22.7683 75.9253 22.5049 75.7311 21.9224C75.6479 21.6867 75.5786 21.4648 75.5786 21.451C75.5786 21.4232 76.0501 21.3955 76.6186 21.3955C77.5615 21.3955 77.6586 21.3678 77.6586 21.1182C77.6586 20.1475 76.7157 19.6067 75.8559 20.0782ZM76.8405 20.2862C76.993 20.3694 77.1039 20.5774 77.1039 20.7715C77.1039 21.1043 77.0623 21.1182 76.3413 21.1182C75.6895 21.1182 75.5925 21.0904 75.6757 20.8686C75.8975 20.2307 76.3274 20.0227 76.8405 20.2862Z" fill="#4B5970"/>
  <path d="M78.6016 20.0504C78.1717 20.2168 78.1162 20.3555 78.4213 20.4803C78.5877 20.5358 78.6293 20.8686 78.6293 22.1859C78.6293 23.7529 78.5045 24.3907 78.2965 24.0441C78.241 23.9609 78.0469 23.8915 77.8528 23.8915C77.409 23.8915 77.4506 24.3491 77.8944 24.4185C78.352 24.4878 78.768 24.1966 78.9898 23.6835C79.1978 23.1843 79.281 19.8563 79.0869 19.884C79.0176 19.8979 78.8096 19.9672 78.6016 20.0504Z" fill="#4B5970"/>
  <path d="M80.2933 20.1059C79.8218 20.3 79.8218 20.3139 80.1269 20.4387C80.4042 20.5496 80.432 20.6467 80.432 21.6035C80.432 22.4355 80.3904 22.6435 80.224 22.6435C80.113 22.6435 80.016 22.699 80.016 22.7822C80.016 22.8515 80.3349 22.9209 80.7093 22.9209C81.0976 22.9209 81.4026 22.8515 81.4026 22.7822C81.4026 22.699 81.3056 22.6435 81.1946 22.6435C81.0282 22.6435 80.9866 22.4355 80.9866 21.6035C80.9866 20.6051 81.0005 20.5496 81.3472 20.411C81.9019 20.203 82.1931 20.3694 82.2763 20.9379C82.4011 21.6451 82.2347 22.6435 82.0128 22.6435C81.9019 22.6435 81.8187 22.699 81.8187 22.7822C81.8187 22.8515 82.1376 22.9209 82.512 22.9209C82.9003 22.9209 83.2053 22.8515 83.2053 22.7822C83.2053 22.699 83.1083 22.6435 82.9973 22.6435C82.8171 22.6435 82.7893 22.4633 82.8171 21.6451C82.8587 20.716 82.8864 20.6328 83.2331 20.4248C83.8848 20.0643 84.0928 20.3416 84.1483 21.5897C84.176 22.4633 84.1483 22.6435 83.968 22.6435C83.8571 22.6435 83.76 22.699 83.76 22.7822C83.76 22.8515 84.0789 22.9209 84.4533 22.9209C84.8416 22.9209 85.1467 22.8515 85.1467 22.7822C85.1467 22.699 85.0496 22.6435 84.9387 22.6435C84.7723 22.6435 84.7307 22.4633 84.7307 21.8393C84.7307 20.7715 84.5088 20.0504 84.1621 19.9395C83.7877 19.8147 83.2885 19.9534 82.9973 20.2307C82.7893 20.4387 82.7616 20.4387 82.5675 20.1614C82.3317 19.8286 81.9019 19.787 81.4026 20.0782C80.9589 20.3278 80.8757 20.3278 80.8202 20.092C80.7786 19.9256 80.7093 19.9256 80.2933 20.1059Z" fill="#4B5970"/>
  <path d="M86.4222 20.0504C85.7289 20.4387 85.4238 21.3678 85.7566 22.1305C85.9924 22.7129 86.3252 22.9209 87.0601 22.9209C87.4484 22.9209 87.6841 22.8238 87.9198 22.5742C88.2942 22.1721 88.211 22.1305 87.7118 22.4494C87.2126 22.7683 86.4638 22.5049 86.2697 21.9225C86.1865 21.6867 86.1172 21.4649 86.1172 21.451C86.1172 21.4233 86.5886 21.3955 87.1572 21.3955C88.1001 21.3955 88.1972 21.3678 88.1972 21.1182C88.1972 20.1752 87.2404 19.5928 86.4222 20.0504ZM87.379 20.2862C87.5316 20.3694 87.6425 20.5774 87.6425 20.7715C87.6425 21.1043 87.6009 21.1182 86.8798 21.1182C86.2281 21.1182 86.131 21.0904 86.2142 20.8686C86.4361 20.2307 86.866 20.0227 87.379 20.2862Z" fill="#4B5970"/>
  <path d="M89.1403 20.0643C88.7659 20.203 88.6133 20.4248 88.8907 20.4248C89.1542 20.4248 89.3344 21.1736 89.2374 21.9086C89.1819 22.4078 89.0848 22.6435 88.9462 22.6435C88.8352 22.6435 88.752 22.699 88.752 22.7822C88.752 22.8515 89.071 22.9209 89.4454 22.9209C89.8336 22.9209 90.1387 22.8515 90.1387 22.7822C90.1387 22.699 90.0416 22.6435 89.9307 22.6435C89.7504 22.6435 89.7227 22.4633 89.7504 21.6451C89.792 20.716 89.8198 20.6328 90.1664 20.4248C90.8182 20.0643 91.0262 20.3416 91.0816 21.5897C91.1094 22.4633 91.0816 22.6435 90.9014 22.6435C90.7904 22.6435 90.6934 22.699 90.6934 22.7822C90.6934 22.8515 91.0123 22.9209 91.3867 22.9209C91.775 22.9209 92.0801 22.8515 92.0801 22.7822C92.0801 22.699 91.9969 22.6435 91.8859 22.6435C91.7334 22.6435 91.6779 22.3523 91.6502 21.451C91.6086 20.4526 91.5531 20.2307 91.3174 20.0643C90.9846 19.8147 90.3467 19.8979 89.9723 20.2446C89.7504 20.4526 89.7227 20.4526 89.7227 20.2446C89.7227 19.9395 89.584 19.8979 89.1403 20.0643Z" fill="#4B5970"/>
  <path d="M98.4312 20.0504C98.0014 20.2168 97.9459 20.3555 98.251 20.4803C98.4035 20.5358 98.459 20.7992 98.459 21.6035C98.459 22.4355 98.4174 22.6435 98.251 22.6435C98.14 22.6435 98.043 22.699 98.043 22.7822C98.043 22.8515 98.3619 22.9209 98.7363 22.9209C99.1246 22.9209 99.4297 22.8515 99.4297 22.7822C99.4297 22.699 99.3326 22.6435 99.2217 22.6435C99.0553 22.6435 99.0137 22.3939 99.0137 21.2568C99.0137 20.4942 98.972 19.8702 98.9166 19.884C98.8472 19.8979 98.6392 19.9672 98.4312 20.0504Z" fill="#4B5970"/>
  <path d="M103.146 20.0504C102.716 20.2168 102.661 20.3555 102.966 20.4803C103.118 20.5358 103.174 20.7992 103.174 21.6035C103.174 22.4355 103.132 22.6435 102.966 22.6435C102.855 22.6435 102.758 22.699 102.758 22.7822C102.758 22.8515 103.077 22.9209 103.451 22.9209C103.839 22.9209 104.144 22.8515 104.144 22.7822C104.144 22.699 104.047 22.6435 103.936 22.6435C103.77 22.6435 103.728 22.3939 103.728 21.2568C103.728 20.4942 103.687 19.8702 103.631 19.884C103.562 19.8979 103.354 19.9672 103.146 20.0504Z" fill="#4B5970"/>
  <path d="M104.907 20.1059C104.491 20.3278 104.491 20.3278 104.81 20.4664C105.087 20.5912 105.115 20.7022 105.115 21.6313C105.115 22.4217 105.073 22.6435 104.921 22.6435C104.81 22.6435 104.671 22.699 104.63 22.7822C104.574 22.8654 104.838 22.9209 105.309 22.9209C105.739 22.9209 106.086 22.8515 106.086 22.7822C106.086 22.699 105.988 22.6435 105.878 22.6435C105.697 22.6435 105.67 22.4633 105.697 21.5758C105.739 20.5496 105.753 20.508 106.127 20.3832C106.751 20.1752 106.918 20.4387 106.918 21.6174C106.918 22.4355 106.876 22.6435 106.71 22.6435C106.599 22.6435 106.502 22.699 106.502 22.7822C106.502 22.8515 106.821 22.9209 107.195 22.9209C107.583 22.9209 107.888 22.8515 107.888 22.7822C107.888 22.699 107.791 22.6435 107.68 22.6435C107.514 22.6435 107.472 22.4355 107.472 21.6174C107.472 20.6051 107.472 20.5912 107.902 20.4248C108.609 20.1198 108.79 20.3416 108.831 21.5897C108.859 22.4494 108.831 22.6435 108.665 22.6435C108.554 22.6435 108.415 22.699 108.374 22.7822C108.318 22.8654 108.582 22.9209 109.053 22.9209C109.483 22.9209 109.83 22.8515 109.83 22.7822C109.83 22.699 109.733 22.6435 109.622 22.6435C109.511 22.6435 109.414 22.5326 109.4 22.3939C109.344 21.3401 109.261 20.5912 109.206 20.3278C109.095 19.8563 108.498 19.7592 107.874 20.1059C107.389 20.3694 107.361 20.3694 107.209 20.1198C107.001 19.8008 106.543 19.8008 105.988 20.1475C105.531 20.4248 105.531 20.4248 105.531 20.1475C105.531 19.8147 105.448 19.8147 104.907 20.1059Z" fill="#4B5970"/>
  <path d="M112.783 20.0088C112.464 20.1475 112.145 20.6051 112.284 20.7576C112.478 20.9518 112.742 20.827 112.825 20.4942C112.977 19.8702 113.851 20.1198 113.851 20.7854C113.851 21.0072 113.74 21.1182 113.463 21.1875C112.728 21.3401 112.187 21.7699 112.187 22.1998C112.187 22.4078 112.256 22.6574 112.353 22.7545C112.561 22.9625 113.324 22.9763 113.546 22.7545C113.671 22.6297 113.782 22.6297 114.031 22.7683C114.406 22.9763 114.836 22.9347 114.919 22.6851C114.96 22.5881 114.877 22.5465 114.711 22.6019C114.461 22.6574 114.433 22.5742 114.392 21.4649C114.35 20.4664 114.295 20.2307 114.073 20.0643C113.768 19.8424 113.241 19.8286 112.783 20.0088ZM113.851 21.7838C113.851 22.3662 113.518 22.6713 113.033 22.5465C112.534 22.4217 112.7 21.7977 113.296 21.5065C113.56 21.3678 113.796 21.2569 113.823 21.2569C113.837 21.2569 113.851 21.4926 113.851 21.7838Z" fill="#4B5970"/>
  <path d="M115.585 20.1059C115.169 20.3278 115.169 20.3278 115.488 20.4664C115.765 20.5912 115.793 20.7022 115.793 21.6313C115.793 22.4217 115.751 22.6435 115.598 22.6435C115.488 22.6435 115.349 22.699 115.307 22.7822C115.252 22.8654 115.515 22.9209 115.987 22.9209C116.763 22.9209 117.027 22.7406 116.472 22.6019C116.195 22.5326 116.181 22.4494 116.236 21.6867C116.306 20.6883 116.638 20.203 117.055 20.4664C117.373 20.6606 117.679 20.4248 117.554 20.092C117.429 19.7592 117.027 19.8286 116.597 20.2446L116.209 20.619V20.2446C116.209 19.8147 116.153 19.8008 115.585 20.1059Z" fill="#4B5970"/>
  <path d="M118.288 20.1059C117.817 20.3139 117.817 20.3139 118.122 20.4664C118.399 20.5912 118.427 20.7021 118.427 21.5619C118.427 22.4078 118.399 22.5464 118.15 22.6019C117.637 22.7406 117.872 22.9208 118.566 22.9208C118.954 22.9208 119.259 22.8515 119.259 22.7822C119.259 22.699 119.162 22.6435 119.051 22.6435C118.899 22.6435 118.843 22.3662 118.815 21.2707L118.774 19.8979L118.288 20.1059Z" fill="#4B5970"/>
  <path d="M120.202 20.0366C119.772 20.1891 119.703 20.3555 120.022 20.4803C120.175 20.5358 120.23 20.7992 120.23 21.6035C120.23 22.4355 120.188 22.6435 120.022 22.6435C119.911 22.6435 119.814 22.699 119.814 22.7822C119.814 22.8515 120.133 22.9209 120.507 22.9209C120.896 22.9209 121.201 22.8515 121.201 22.7822C121.201 22.699 121.104 22.6435 120.993 22.6435C120.826 22.6435 120.785 22.4355 120.785 21.6313C120.785 20.6744 120.812 20.6051 121.131 20.4526C121.936 20.0782 122.171 20.3694 122.171 21.7283C122.171 22.4355 122.13 22.6435 121.977 22.6435C121.866 22.6435 121.728 22.699 121.686 22.7822C121.631 22.8654 121.894 22.9209 122.365 22.9209C122.795 22.9209 123.142 22.8515 123.142 22.7822C123.142 22.699 123.045 22.6435 122.934 22.6435C122.823 22.6435 122.726 22.5326 122.712 22.3939C122.643 20.0504 122.296 19.5096 121.201 20.0782C120.868 20.2446 120.785 20.2584 120.688 20.092C120.604 19.9534 120.48 19.9395 120.202 20.0366Z" fill="#4B5970"/>
  <path d="M123.946 20.0504C123.516 20.2168 123.461 20.3555 123.766 20.4803C123.918 20.5358 123.974 20.7992 123.974 21.6035C123.974 22.4355 123.932 22.6435 123.766 22.6435C123.655 22.6435 123.558 22.699 123.558 22.7822C123.558 22.8515 123.877 22.9209 124.251 22.9209C124.639 22.9209 124.944 22.8515 124.944 22.7822C124.944 22.699 124.847 22.6435 124.736 22.6435C124.57 22.6435 124.528 22.3939 124.528 21.2568C124.528 20.4942 124.487 19.8702 124.431 19.884C124.362 19.8979 124.154 19.9672 123.946 20.0504Z" fill="#4B5970"/>
  <path d="M99.9289 20.3139C99.8041 20.7715 99.818 20.8408 100.04 20.8408C100.151 20.8408 100.262 20.7022 100.289 20.5219C100.317 20.2723 100.428 20.203 100.927 20.1752C101.26 20.1475 101.51 20.1891 101.51 20.2723C101.51 20.3555 101.135 20.9379 100.678 21.5619C100.22 22.1859 99.8457 22.7406 99.8457 22.8099C99.8457 22.8654 100.414 22.9209 101.094 22.9209H102.342V22.4217C102.342 21.8809 102.023 21.8115 101.953 22.3385C101.912 22.6019 101.815 22.6435 101.219 22.6435C100.844 22.6435 100.539 22.6158 100.539 22.5742C100.539 22.5326 100.913 21.9918 101.371 21.3678C101.829 20.7438 102.203 20.1891 102.203 20.1198C102.203 20.0643 101.718 20.0088 101.108 20.0088C100.095 20.0088 100.012 20.0366 99.9289 20.3139Z" fill="#4B5970"/>
  <path d="M54.9447 24.6126C54.5148 24.7235 54.4455 25.0009 54.8615 25.0009C55.0141 25.0009 55.0557 25.3059 55.0557 26.651C55.0557 28.2318 55.0418 28.3012 54.7506 28.3983C54.4455 28.4953 54.4455 28.5092 54.8199 28.5647C55.0418 28.6063 55.2914 28.5508 55.4023 28.4676C55.5271 28.3705 55.6103 28.3567 55.6797 28.4676C55.8461 28.7449 56.6503 28.6201 56.9831 28.2734C57.3298 27.899 57.413 26.9145 57.1357 26.3876C56.8999 25.9438 56.3591 25.7913 55.8738 26.027L55.4855 26.2212L55.4439 25.3614L55.4023 24.5017L54.9447 24.6126ZM56.7058 26.6094C57.0386 27.3444 56.7335 28.3289 56.165 28.3289C55.5687 28.3289 55.4717 28.1902 55.4717 27.2889C55.4717 26.5401 55.5133 26.4153 55.7767 26.2905C56.2066 26.0964 56.5117 26.2073 56.7058 26.6094Z" fill="#4B5970"/>
  <path d="M67.4663 24.6542C67.1196 24.8068 67.0919 24.8484 67.2999 24.9316C67.5079 25.0148 67.5356 25.2366 67.5356 26.6788C67.5356 28.0516 67.494 28.3289 67.3276 28.3289C67.2167 28.3289 67.1196 28.3844 67.1196 28.4676C67.1196 28.5369 67.397 28.6063 67.7436 28.6063C68.0903 28.6063 68.3676 28.5369 68.3676 28.4676C68.3676 28.3844 68.2706 28.3289 68.1596 28.3289C67.9932 28.3289 67.9516 27.9823 67.9239 26.4014L67.8823 24.4739L67.4663 24.6542Z" fill="#4B5970"/>
  <path d="M74.3999 24.6542C74.0532 24.8068 74.0255 24.8484 74.2335 24.9316C74.4415 25.0148 74.4692 25.2366 74.4692 26.6788C74.4692 28.0516 74.4276 28.3289 74.2612 28.3289C74.1503 28.3289 74.0532 28.3844 74.0532 28.4676C74.0532 28.5369 74.3306 28.6063 74.6772 28.6063C75.0239 28.6063 75.3012 28.5369 75.3012 28.4676C75.3012 28.3844 75.2042 28.3289 75.0932 28.3289C74.9268 28.3289 74.8852 28.1348 74.8852 27.4553C74.8852 26.6372 74.913 26.554 75.2458 26.4014C75.9391 26.0964 76.1332 26.2905 76.1332 27.3166C76.1332 28.0239 76.0778 28.2735 75.8975 28.4121C75.6756 28.5785 75.7311 28.5924 76.3135 28.6063C76.6741 28.6063 76.9653 28.5369 76.9653 28.4676C76.9653 28.3844 76.9098 28.3289 76.8266 28.3289C76.7573 28.3289 76.6879 28.0377 76.6879 27.6633C76.6879 26.7065 76.4661 26.0132 76.1194 25.93C75.7727 25.8329 75.2458 26.0132 75.0655 26.2766C74.9962 26.3876 74.9268 26.0825 74.8852 25.4585L74.8159 24.4739L74.3999 24.6542Z" fill="#4B5970"/>
  <path d="M60.7411 24.7236C60.5747 24.8345 60.5747 24.8622 60.7827 24.9454C60.9907 25.0148 61.0185 25.2505 61.0185 26.6233C61.0185 27.9961 60.9769 28.2596 60.7827 28.4121C60.5609 28.5785 60.6302 28.5924 61.2958 28.5924C61.9753 28.5924 62.0307 28.5785 61.8089 28.4121C61.6009 28.2596 61.5731 28.0516 61.6009 27.3444C61.6425 26.5262 61.6702 26.4569 62.0169 26.3321C62.6131 26.1241 62.8212 26.4014 62.8212 27.4414C62.8212 28.1348 62.7796 28.3289 62.6131 28.3289C62.5022 28.3289 62.4051 28.3844 62.4051 28.4676C62.4051 28.5369 62.6825 28.6063 63.0292 28.6063C63.3758 28.6063 63.6532 28.5369 63.6532 28.4676C63.6532 28.3844 63.5561 28.3289 63.4452 28.3289C63.2788 28.3289 63.2372 28.1348 63.2372 27.4414C63.2372 26.9561 63.1956 26.443 63.154 26.3321C63.0014 25.9161 62.5854 25.8052 62.0585 26.027L61.5731 26.235V25.403C61.5731 24.6404 61.5454 24.5849 61.2681 24.5849C61.0878 24.5849 60.8521 24.6404 60.7411 24.7236Z" fill="#4B5970"/>
  <path d="M81.1807 24.7929C81.1252 24.9177 81.153 25.0841 81.2362 25.1673C81.4442 25.3753 81.8463 25.1812 81.7909 24.9038C81.7354 24.5849 81.2916 24.5017 81.1807 24.7929Z" fill="#4B5970"/>
  <path d="M106.363 24.7235C106.197 24.8345 106.197 24.8622 106.405 24.9454C106.613 25.0147 106.641 25.2505 106.641 26.6233C106.641 27.9961 106.599 28.2596 106.405 28.4121C106.183 28.5785 106.252 28.5924 106.918 28.5924C107.583 28.5924 107.653 28.5785 107.445 28.4121C107.223 28.2596 107.195 27.9822 107.195 26.4014C107.195 24.6126 107.195 24.5849 106.89 24.5849C106.71 24.5849 106.474 24.6403 106.363 24.7235Z" fill="#4B5970"/>
  <path d="M108.36 24.7929C108.263 25.0425 108.401 25.2782 108.651 25.2782C108.859 25.2782 109.039 24.9038 108.914 24.7097C108.804 24.5156 108.443 24.5572 108.36 24.7929Z" fill="#4B5970"/>
  <path d="M113.102 24.7097C112.963 24.9315 113.171 25.2921 113.421 25.2505C113.712 25.195 113.712 24.6681 113.407 24.6126C113.282 24.5849 113.144 24.6265 113.102 24.7097Z" fill="#4B5970"/>
  <path d="M117.36 24.8068C117.318 24.9177 117.346 25.0841 117.443 25.1812C117.637 25.3753 118.094 24.9732 117.956 24.7374C117.817 24.5156 117.457 24.5572 117.36 24.8068Z" fill="#4B5970"/>
  <path d="M124.029 24.7929C123.974 24.9177 124.002 25.0841 124.085 25.1673C124.293 25.3753 124.695 25.1812 124.639 24.9038C124.584 24.5849 124.14 24.5017 124.029 24.7929Z" fill="#4B5970"/>
  <path d="M111.452 25.2366C111.397 25.2782 111.355 25.4446 111.355 25.5971C111.355 25.7358 111.23 25.8884 111.078 25.93C110.759 26.0132 110.703 26.2489 111.008 26.2489C111.175 26.2489 111.216 26.4569 111.216 27.2612C111.216 27.8574 111.286 28.3428 111.383 28.4398C111.591 28.6479 112.27 28.6617 112.395 28.4676C112.45 28.3844 112.34 28.3428 112.159 28.3705C111.854 28.3982 111.84 28.3566 111.799 27.3166C111.757 26.2489 111.757 26.2489 112.118 26.2489C112.312 26.2489 112.464 26.1796 112.464 26.1102C112.464 26.027 112.312 25.9716 112.118 25.9716C111.826 25.9716 111.771 25.9022 111.771 25.5555C111.771 25.1534 111.646 25.0286 111.452 25.2366Z" fill="#4B5970"/>
  <path d="M58.5917 25.9716C58.2173 26.1241 57.9261 26.4846 58.0371 26.6649C58.1757 26.8868 58.3283 26.8313 58.4947 26.4569C58.7027 25.9993 59.1741 25.9993 59.3821 26.4569C59.5624 26.8729 59.5901 26.8313 58.772 27.1918C58.0371 27.5108 57.8013 27.8297 57.9816 28.2873C58.0648 28.5369 58.2035 28.6063 58.564 28.6063C58.8136 28.6063 59.0909 28.5369 59.188 28.4399C59.3128 28.3151 59.396 28.3151 59.5208 28.4399C59.7288 28.6479 60.3251 28.6617 60.3251 28.4676C60.3251 28.3844 60.228 28.3289 60.1171 28.3289C59.9507 28.3289 59.9091 28.1487 59.9091 27.5247C59.9091 26.4569 59.812 26.1796 59.4099 25.9854C59.0077 25.8052 58.9661 25.8052 58.5917 25.9716ZM59.4931 27.6356C59.4931 27.9545 59.4099 28.0932 59.1603 28.218C58.4531 28.5369 58.0648 27.8713 58.6888 27.4414C59.2019 27.0809 59.4931 27.1502 59.4931 27.6356Z" fill="#4B5970"/>
  <path d="M64.9706 25.9577C64.097 26.3182 63.8335 27.5662 64.4714 28.2457C64.9012 28.7033 65.8303 28.7588 66.2047 28.3428C67.1477 27.2889 66.2047 25.4446 64.9706 25.9577ZM65.7887 26.2905C65.9413 26.4014 66.0661 26.7203 66.1077 27.1086C66.177 27.6633 66.1354 27.802 65.8303 28.107C65.4004 28.5369 65.2618 28.5508 64.9012 28.1902C64.3327 27.6217 64.6794 26.1102 65.3588 26.1102C65.4559 26.1102 65.6501 26.1934 65.7887 26.2905Z" fill="#4B5970"/>
  <path d="M69.5465 25.9716C69.1721 26.1241 68.8809 26.4846 68.9919 26.6649C69.1305 26.8868 69.2831 26.8313 69.4495 26.4569C69.6575 25.9993 70.129 25.9993 70.3092 26.4708C70.3924 26.6649 70.4479 26.8452 70.4479 26.859C70.4479 26.8868 70.1706 27.0116 69.8378 27.1364C69.0057 27.4553 68.7423 27.7743 68.9087 28.2457C69.0335 28.5369 69.1444 28.6063 69.5188 28.6063C69.7684 28.6063 70.0458 28.5369 70.1428 28.4399C70.2676 28.3151 70.3508 28.3151 70.4756 28.4399C70.6836 28.6479 71.2799 28.6617 71.2799 28.4676C71.2799 28.3844 71.1828 28.3289 71.0719 28.3289C70.9055 28.3289 70.8639 28.1487 70.8639 27.5247C70.8639 26.4569 70.7668 26.1796 70.3647 25.9854C69.9626 25.8052 69.921 25.8052 69.5465 25.9716ZM70.4479 27.6356C70.4479 27.9545 70.3647 28.0932 70.1151 28.218C69.4079 28.5369 69.0196 27.8713 69.6436 27.4414C70.1567 27.0809 70.4479 27.1502 70.4479 27.6356Z" fill="#4B5970"/>
  <path d="M72.292 25.9716C72.1256 26.0409 71.9176 26.2212 71.8344 26.3876C71.6125 26.7897 71.9454 27.2889 72.5832 27.4969C73.1518 27.6772 73.332 28.0377 72.9992 28.2873C72.6387 28.5508 72.2782 28.5092 72.084 28.1903C71.8483 27.8159 71.668 27.8436 71.7235 28.218C71.7651 28.4953 71.8622 28.5369 72.4862 28.5785C73.124 28.6201 73.235 28.5785 73.4291 28.2735C73.748 27.7881 73.5816 27.4276 72.8744 27.0809C72.1395 26.7204 72.0286 26.5817 72.2504 26.3182C72.5 26.027 72.9022 26.0686 73.0824 26.3876C73.1656 26.5401 73.2904 26.6649 73.3598 26.6649C73.5262 26.6649 73.54 26.1518 73.4014 26.0686C73.124 25.9161 72.5694 25.8745 72.292 25.9716Z" fill="#4B5970"/>
  <path d="M77.7281 26.0686C77.4369 26.235 77.3675 26.3182 77.5201 26.3598C77.8529 26.4708 77.9361 26.6788 77.9361 27.4414C77.9361 28.0239 77.8806 28.1903 77.631 28.3705C77.3259 28.5785 77.3398 28.5924 78.0747 28.5924C78.7542 28.5924 78.8097 28.5785 78.5878 28.4121C78.3798 28.2596 78.3521 28.0516 78.3798 27.3444C78.4214 26.5401 78.4491 26.4708 78.8097 26.346C79.4198 26.1518 79.6001 26.4014 79.6001 27.4414C79.6001 28.1348 79.5585 28.3289 79.3921 28.3289C79.2811 28.3289 79.1841 28.3844 79.1841 28.4676C79.1841 28.5369 79.4614 28.6063 79.8081 28.6063C80.1547 28.6063 80.4321 28.5369 80.4321 28.4676C80.4321 28.3844 80.335 28.3289 80.2241 28.3289C80.0577 28.3289 80.0161 28.1348 80.0161 27.4414C80.0161 26.4014 79.9467 26.1518 79.5862 25.9577C79.4059 25.8606 79.1841 25.8884 78.8235 26.0409C78.2134 26.2905 78.2411 26.2905 78.1857 26.0548C78.1441 25.8884 78.0747 25.8884 77.7281 26.0686Z" fill="#4B5970"/>
  <path d="M81.1252 26.0825C80.6676 26.2766 80.6537 26.2905 80.9588 26.4014C81.2361 26.4985 81.2638 26.6094 81.2638 27.4276C81.2638 28.1348 81.2222 28.3289 81.0558 28.3289C80.9449 28.3289 80.8478 28.3844 80.8478 28.4676C80.8478 28.5369 81.139 28.6063 81.5134 28.6063C82.082 28.5924 82.1374 28.5785 81.9294 28.4121C81.7492 28.2735 81.6798 27.9684 81.6521 27.0532L81.6105 25.8745L81.1252 26.0825Z" fill="#4B5970"/>
  <path d="M84.0376 25.93C83.9266 25.9716 83.7186 26.0964 83.5938 26.2212C83.372 26.4153 83.3442 26.4014 83.3442 26.2073C83.3442 25.9438 83.2887 25.93 82.8311 26.0548C82.4706 26.1518 82.4013 26.3876 82.7202 26.3876C82.8866 26.3876 82.9282 26.5817 82.9282 27.3582C82.9282 28.1348 82.8866 28.3289 82.7202 28.3289C82.6093 28.3289 82.5122 28.3844 82.5122 28.4676C82.5122 28.5369 82.7895 28.6063 83.1362 28.6063C83.4829 28.6063 83.7602 28.5369 83.7602 28.4676C83.7602 28.3844 83.6632 28.3289 83.5522 28.3289C83.3858 28.3289 83.3442 28.1348 83.3442 27.4553C83.3442 26.6372 83.372 26.554 83.7048 26.4014C84.3981 26.0964 84.5922 26.2905 84.5922 27.3166C84.5922 28.0239 84.5368 28.2735 84.3565 28.4121C84.1346 28.5785 84.1901 28.5924 84.7725 28.6063C85.133 28.6063 85.4242 28.5369 85.4242 28.4676C85.4242 28.3844 85.3688 28.3289 85.2856 28.3289C85.2162 28.3289 85.1469 28.0655 85.1469 27.7327C85.1469 27.1918 84.9528 26.138 84.8418 26.0409C84.717 25.93 84.2178 25.8606 84.0376 25.93Z" fill="#4B5970"/>
  <path d="M86.5613 25.9716C86.076 26.1796 85.868 26.7481 86.1314 27.2057C86.2978 27.483 86.3117 27.6633 86.2008 27.899C86.1037 28.1209 86.1176 28.2873 86.2285 28.4814C86.3256 28.634 86.3394 28.7449 86.2562 28.7449C86.0621 28.7449 85.8264 29.2441 85.9234 29.4937C86.0482 29.8127 86.9357 30.0207 87.4904 29.8543C88.1144 29.674 88.3363 29.466 88.3363 29.0361C88.3363 28.5092 88.1005 28.3289 87.3795 28.3289C86.6307 28.3289 86.3256 28.1625 86.4365 27.8574C86.492 27.7188 86.6861 27.6356 86.9912 27.6356C87.6568 27.6356 87.948 27.3721 87.948 26.762C87.948 26.346 88.0035 26.2489 88.2115 26.2489C88.3501 26.2489 88.4749 26.1934 88.4749 26.1241C88.4749 26.0409 88.2392 25.9993 87.9619 25.9993C87.6707 26.0132 87.3101 25.9854 87.1576 25.9299C87.0051 25.8883 86.7416 25.9022 86.5613 25.9716ZM87.4765 26.6788C87.5181 27.2473 87.2547 27.5662 86.8248 27.4276C86.1592 27.2196 86.3811 26.0548 87.0605 26.138C87.3795 26.1796 87.4349 26.2489 87.4765 26.6788ZM87.6152 28.6894C88.0728 28.8142 87.9896 29.4521 87.4904 29.6324C86.7277 29.8959 86.0898 29.4521 86.3949 28.8697C86.5475 28.6062 87.0051 28.5369 87.6152 28.6894Z" fill="#4B5970"/>
  <path d="M91.4144 26.0548C91.248 26.1657 91.1094 26.3321 91.1094 26.4292C91.1094 26.5401 91.151 26.5401 91.2758 26.4153C91.4006 26.2905 91.4838 26.2905 91.6224 26.4153C91.775 26.5401 91.8721 26.5262 92.0385 26.3598C92.2326 26.1518 92.2326 26.1241 91.983 25.9854C91.775 25.8884 91.6363 25.9022 91.4144 26.0548Z" fill="#4B5970"/>
  <path d="M93.023 26.0409C92.8012 26.1657 92.6348 26.3737 92.6348 26.5262C92.6348 26.9145 92.8844 26.8729 93.0785 26.4569C93.3281 25.9022 94.0908 26.0686 93.9937 26.6649C93.966 26.9006 93.7996 27.0393 93.4113 27.178C93.1201 27.275 92.7873 27.4276 92.6902 27.5108C92.4545 27.7049 92.4406 28.218 92.6625 28.4399C92.8705 28.6479 93.6332 28.6617 93.8412 28.4537C93.9521 28.3428 94.063 28.3567 94.2572 28.4815C94.4236 28.5785 94.6454 28.6063 94.798 28.5369C95.006 28.4537 95.0198 28.426 94.8534 28.3567C94.5068 28.2457 94.4374 28.0239 94.4374 27.1364C94.4374 26.6233 94.3681 26.2212 94.2572 26.138C93.9382 25.8745 93.3974 25.8329 93.023 26.0409ZM94.0214 27.6078C94.0214 28.2873 93.342 28.6063 93.0508 28.0655C92.9398 27.8436 92.9814 27.7465 93.2726 27.5108C93.7857 27.1086 94.0214 27.1364 94.0214 27.6078Z" fill="#4B5970"/>
  <path d="M95.8103 26.235C95.4775 26.5817 95.4082 26.762 95.4082 27.3166C95.4082 27.8574 95.4775 28.0654 95.7271 28.3012C96.0599 28.6201 96.8504 28.7172 97.0029 28.4676C97.197 28.1486 97.3496 28.3705 97.3496 28.9668C97.3496 29.4798 97.2941 29.6185 97.0722 29.674C96.5591 29.8127 96.7949 29.9929 97.4882 29.9929C97.8765 29.9929 98.1816 29.9236 98.1816 29.8543C98.1816 29.7711 98.0845 29.7156 97.9736 29.7156C97.7933 29.7156 97.7656 29.4105 97.7656 27.8436C97.7656 26.1379 97.6824 25.6942 97.4189 26.1102C97.3634 26.1934 97.1832 26.1657 96.9336 26.0409C96.3789 25.7497 96.2818 25.7774 95.8103 26.235ZM97.1416 27.3028V28.2596L96.6978 28.3012C96.1709 28.3566 95.8242 27.9406 95.8242 27.2473C95.8242 26.6233 96.365 26.0686 96.8226 26.235C97.1138 26.3459 97.1416 26.4291 97.1416 27.3028Z" fill="#4B5970"/>
  <path d="M99.0552 26.0409C98.7363 26.1796 98.5976 26.3321 98.5976 26.5262C98.5976 26.9006 98.8888 26.8313 99.083 26.4153C99.3187 25.8884 100.04 26.0964 99.9566 26.6649C99.9289 26.9006 99.7625 27.0393 99.3742 27.178C99.083 27.275 98.7502 27.4276 98.6531 27.5108C98.4174 27.7049 98.4035 28.218 98.6254 28.4399C98.8334 28.6479 99.5961 28.6617 99.8041 28.4537C99.915 28.3428 100.026 28.3567 100.22 28.4815C100.386 28.5785 100.608 28.6063 100.761 28.5369C100.969 28.4537 100.983 28.426 100.816 28.3567C100.47 28.2457 100.4 28.0239 100.4 27.1364C100.4 26.6233 100.331 26.2212 100.234 26.138C99.9011 25.8884 99.499 25.8468 99.0552 26.0409ZM99.9843 27.6078C99.9843 28.2873 99.3048 28.6063 99.0136 28.0655C98.9027 27.8436 98.9443 27.7465 99.2355 27.5108C99.7486 27.1086 99.9843 27.1364 99.9843 27.6078Z" fill="#4B5970"/>
  <path d="M101.579 26.0825C101.246 26.2628 101.219 26.3182 101.413 26.3598C101.607 26.4014 101.648 26.5678 101.648 27.3166C101.648 28.0239 101.593 28.2735 101.413 28.4121C101.191 28.5785 101.26 28.5924 101.926 28.5924C102.605 28.5924 102.661 28.5785 102.439 28.4121C102.231 28.2596 102.203 28.0516 102.231 27.3444C102.272 26.5262 102.3 26.4569 102.661 26.3321C103.188 26.138 103.34 26.346 103.423 27.3028C103.479 28.01 103.451 28.1209 103.16 28.3428L102.827 28.6063L103.59 28.5924C104.269 28.5924 104.325 28.5785 104.103 28.4121C103.895 28.2596 103.867 28.0516 103.895 27.3444C103.936 26.5124 103.964 26.4569 104.325 26.3182C104.879 26.1241 105.115 26.4846 105.115 27.5246C105.115 28.1487 105.074 28.3289 104.907 28.3289C104.796 28.3289 104.699 28.3844 104.699 28.4676C104.699 28.5369 104.99 28.6063 105.365 28.6063C105.933 28.5924 105.989 28.5785 105.781 28.4121C105.6 28.2735 105.531 28.0239 105.531 27.4553C105.531 26.0409 105.143 25.6388 104.214 26.1102C103.95 26.2489 103.728 26.3044 103.728 26.235C103.728 26.1657 103.576 26.0409 103.396 25.9577C103.146 25.8468 102.98 25.8606 102.647 26.027C102.12 26.3044 102.092 26.3044 102.037 26.0548C102.009 25.8884 101.926 25.8884 101.579 26.0825Z" fill="#4B5970"/>
  <path d="M120.146 25.9716C119.661 26.1657 119.564 26.443 120.008 26.3321C120.604 26.1796 120.784 26.4292 120.784 27.4414C120.784 28.1348 120.743 28.3289 120.576 28.3289C120.465 28.3289 120.368 28.3844 120.368 28.4676C120.368 28.5369 120.646 28.6063 120.992 28.6063C121.339 28.6063 121.616 28.5369 121.616 28.4676C121.616 28.3844 121.519 28.3289 121.408 28.3289C121.242 28.3289 121.2 28.1348 121.2 27.4414C121.2 26.5956 121.214 26.554 121.616 26.3876C122.254 26.1241 122.448 26.3737 122.448 27.4414C122.448 28.1348 122.407 28.3289 122.24 28.3289C122.129 28.3289 122.032 28.3844 122.032 28.4676C122.032 28.5369 122.31 28.6063 122.656 28.6063C123.003 28.6063 123.28 28.5369 123.28 28.4676C123.28 28.3844 123.183 28.3289 123.072 28.3289C122.906 28.3289 122.864 28.1209 122.864 27.2889C122.864 26.3598 122.837 26.235 122.532 26.0409C122.199 25.819 121.616 25.9161 121.408 26.2489C121.353 26.346 121.2 26.2905 120.965 26.1102C120.562 25.8052 120.562 25.8052 120.146 25.9716Z" fill="#4B5970"/>
  <path d="M124.085 26.027C123.669 26.1796 123.558 26.3876 123.904 26.3876C124.071 26.3876 124.112 26.5817 124.112 27.3582C124.112 28.1348 124.071 28.3289 123.904 28.3289C123.793 28.3289 123.696 28.3844 123.696 28.4676C123.696 28.5369 123.974 28.6063 124.32 28.6063C124.667 28.6063 124.944 28.5369 124.944 28.4676C124.944 28.3844 124.847 28.3289 124.736 28.3289C124.584 28.3289 124.528 28.0655 124.501 27.1086L124.459 25.8884L124.085 26.027Z" fill="#4B5970"/>
  <path d="M90.208 26.1518C89.9723 26.3321 89.9723 26.346 90.2635 26.4292C90.5269 26.4985 90.5547 26.5956 90.5547 27.4137C90.5547 28.1348 90.5131 28.3289 90.3467 28.3289C90.2357 28.3289 90.1387 28.3844 90.1387 28.4676C90.1387 28.5369 90.416 28.6063 90.7627 28.6063C91.1094 28.6063 91.3867 28.5369 91.3867 28.4676C91.3867 28.3844 91.2896 28.3289 91.1648 28.3289C90.9846 28.3289 90.9568 28.1764 90.9707 27.4553C91.0123 26.0964 90.9984 25.9716 90.7211 25.9716C90.5824 25.9716 90.3605 26.0548 90.208 26.1518Z" fill="#4B5970"/>
  <path d="M108.166 26.138L107.819 26.2766L108.138 26.4014C108.415 26.4985 108.443 26.6094 108.443 27.4276C108.443 28.1348 108.401 28.3289 108.235 28.3289C108.124 28.3289 108.027 28.3844 108.027 28.4676C108.027 28.5369 108.318 28.6063 108.692 28.6063C109.261 28.5924 109.316 28.5785 109.108 28.4121C108.9 28.2596 108.859 28.01 108.859 27.0948C108.859 25.9022 108.831 25.8606 108.166 26.138Z" fill="#4B5970"/>
  <path d="M112.936 26.1796C112.7 26.3598 112.7 26.3737 112.922 26.3876C113.116 26.3876 113.158 26.5262 113.158 27.3028C113.158 28.0239 113.102 28.2735 112.922 28.4121C112.7 28.5785 112.756 28.5924 113.338 28.6063C113.699 28.6063 113.99 28.5369 113.99 28.4676C113.99 28.3844 113.893 28.3289 113.782 28.3289C113.615 28.3289 113.574 28.1071 113.574 27.1502C113.574 25.9022 113.491 25.7636 112.936 26.1796Z" fill="#4B5970"/>
  <path d="M114.406 26.3876C114.406 26.8868 114.641 26.9422 114.766 26.4569C114.836 26.1657 114.933 26.1102 115.39 26.1102C115.682 26.1102 115.931 26.1518 115.931 26.1934C115.931 26.235 115.612 26.7065 115.224 27.2473C114.198 28.6617 114.184 28.6062 115.501 28.6062H116.624V28.1902C116.624 27.7188 116.416 27.6356 116.278 28.0516C116.208 28.2734 116.07 28.3289 115.557 28.3289C115.071 28.3289 114.96 28.2873 115.058 28.1486C115.626 27.4553 116.486 26.1934 116.486 26.0963C116.486 26.027 116.014 25.9715 115.446 25.9715H114.406V26.3876Z" fill="#4B5970"/>
  <path d="M117.179 26.138L116.833 26.2766L117.151 26.4014C117.429 26.4985 117.457 26.6094 117.457 27.4276C117.457 28.1348 117.415 28.3289 117.249 28.3289C117.138 28.3289 117.041 28.3844 117.041 28.4676C117.041 28.5369 117.332 28.6063 117.706 28.6063C118.275 28.5924 118.33 28.5785 118.122 28.4121C117.914 28.2596 117.873 28.01 117.873 27.0948C117.873 25.9022 117.845 25.8606 117.179 26.138Z" fill="#4B5970"/>
  <path d="M118.843 26.1102C118.663 26.235 118.663 26.2766 118.885 26.4014C119.204 26.5956 119.245 28.3289 118.913 28.3289C118.802 28.3289 118.705 28.3844 118.705 28.4676C118.705 28.5369 118.982 28.6063 119.329 28.6063C119.675 28.6063 119.953 28.5369 119.953 28.4676C119.953 28.3844 119.856 28.3289 119.731 28.3289C119.564 28.3289 119.523 28.1625 119.537 27.386C119.55 26.8729 119.55 26.346 119.55 26.2073C119.537 25.9438 119.176 25.9022 118.843 26.1102Z" fill="#4B5970"/>
</svg>